<svg xmlns="http://www.w3.org/2000/svg" xmlns:xlink="http://www.w3.org/1999/xlink" width="50" height="50" viewBox="0 0 50 50">
  <defs>
    <clipPath id="clip-icon">
      <rect width="50" height="50"/>
    </clipPath>
  </defs>
  <g id="icon" clip-path="url(#clip-icon)">
    <g id="Group_4" data-name="Group 4" transform="translate(-35.333 -38.874)">
      <g id="Group_3" data-name="Group 3" transform="translate(59.585 43.506)" style="isolation: isolate">
        <path id="Subtraction_1" data-name="Subtraction 1" d="M4.765,3.387C2.138,3.387,0,2.57,0,1.566a.715.715,0,0,1,0-.075A2.836,2.836,0,0,0,2.153.042L2.33,0a10.494,10.494,0,0,0,3,1.018,22.384,22.384,0,0,0,4.184.408.72.72,0,0,1,.014.141C9.53,2.57,7.392,3.387,4.765,3.387Z" transform="translate(9.085 20.913) rotate(-60)" fill="#ca00ee"/>
        <path id="Subtraction_3" data-name="Subtraction 3" d="M6.275,4.448C2.815,4.448,0,3.375,0,2.056a.938.938,0,0,1,.005-.1C1.522,1.581,2.58.87,2.836.056L3.069,0A13.848,13.848,0,0,0,7.023,1.336a29.565,29.565,0,0,0,5.51.535.942.942,0,0,1,.018.185C12.551,3.375,9.736,4.448,6.275,4.448Z" transform="translate(8.631 23.966) rotate(-51)" fill="#ca00ee"/>
        <path id="Subtraction_4" data-name="Subtraction 4" d="M6.9,5.7C3.1,5.7,0,4.328,0,2.637c0-.042,0-.084.006-.126,1.669-.483,2.832-1.4,3.114-2.44C3.206.046,3.293.022,3.376,0A13.837,13.837,0,0,0,7.725,1.713a28.065,28.065,0,0,0,6.061.686,1.4,1.4,0,0,1,.02.237C13.806,4.328,10.709,5.7,6.9,5.7Z" transform="translate(7.575 27.476) rotate(-40)" fill="#ca00ee"/>
        <path id="Subtraction_5" data-name="Subtraction 5" d="M10.284,5.45C4.613,5.45,0,4.136,0,2.52A.858.858,0,0,1,.009,2.4C2.494,1.938,4.228,1.066,4.647.068,4.777.044,4.905.021,5.03,0a28.2,28.2,0,0,0,6.479,1.637,64.33,64.33,0,0,0,9.03.656.875.875,0,0,1,.03.226C20.569,4.136,15.955,5.45,10.284,5.45Z" transform="matrix(0.921, -0.391, 0.391, 0.921, 4.814, 31.737)" fill="#ca00ee"/>
        <path id="Subtraction_8" data-name="Subtraction 8" d="M5.1,1.856c-2.813,0-5.1-.448-5.1-1A.2.2,0,0,1,0,.817C1.237.66,2.1.363,2.305.023L2.5,0A19.342,19.342,0,0,0,5.709.558c1.353.14,2.9.217,4.479.223A.211.211,0,0,1,10.2.858C10.2,1.408,7.915,1.856,5.1,1.856Z" transform="matrix(-0.035, -0.999, 0.999, -0.035, 9.944, 17.57)" fill="#ca00ee"/>
        <path id="Subtraction_9" data-name="Subtraction 9" d="M3.824,2.132C1.715,2.132,0,1.618,0,.986A.355.355,0,0,1,0,.939C.927.758,1.572.417,1.728.027L1.87,0A10.065,10.065,0,0,0,4.279.641,22.752,22.752,0,0,0,7.636.9a.359.359,0,0,1,.011.089C7.647,1.618,5.932,2.132,3.824,2.132Z" transform="translate(9.588 18.728) rotate(-73)" fill="#ca00ee"/>
        <path id="Subtraction_10" data-name="Subtraction 10" d="M6.466,1.7C2.9,1.7,0,1.293,0,.788A.137.137,0,0,1,.005.75,5.83,5.83,0,0,0,2.922.021L3.162,0A33.085,33.085,0,0,0,7.236.512c1.714.129,3.678.2,5.677.205a.149.149,0,0,1,.019.071C12.933,1.293,10.032,1.7,6.466,1.7Z" transform="matrix(-0.259, -0.966, 0.966, -0.259, 9.812, 16.52)" fill="#ca00ee"/>
        <path id="Subtraction_11" data-name="Subtraction 11" d="M7.747,1.568C3.475,1.568,0,1.19,0,.725A.1.1,0,0,1,.006.69,8.64,8.64,0,0,0,3.5.02L3.789,0c1.2.193,2.885.356,4.881.471,2.054.118,4.406.184,6.8.189a.113.113,0,0,1,.023.065C15.495,1.19,12.019,1.568,7.747,1.568Z" transform="matrix(-0.438, -0.899, 0.899, -0.438, 9.156, 14.614)" fill="#ca00ee"/>
        <path id="Subtraction_12" data-name="Subtraction 12" d="M12.612,5.8C5.658,5.8,0,4.4,0,2.682a.8.8,0,0,1,.01-.128C3.059,2.063,5.185,1.135,5.7.073c.159-.026.317-.05.469-.073a38.89,38.89,0,0,0,7.946,1.743,90.674,90.674,0,0,0,11.074.7.816.816,0,0,1,.037.241C25.225,4.4,19.567,5.8,12.612,5.8Z" transform="matrix(0.982, -0.191, 0.191, 0.982, 0, 35.04)" fill="#ca00ee"/>
      </g>
      <g id="Group_5" data-name="Group 5" transform="translate(35.204 43.506)" style="isolation: isolate">
        <path id="Subtraction_1-2" data-name="Subtraction 1" d="M4.765,0C2.138,0,0,.817,0,1.821A.715.715,0,0,0,0,1.9,2.836,2.836,0,0,1,2.153,3.345l.177.042a10.494,10.494,0,0,1,3-1.018,22.384,22.384,0,0,1,4.184-.408.72.72,0,0,0,.014-.141C9.53.817,7.392,0,4.765,0Z" transform="translate(13.859 22.607) rotate(-120)" fill="#ca00ee"/>
        <path id="Subtraction_3-2" data-name="Subtraction 3" d="M6.275,0C2.815,0,0,1.073,0,2.392a.938.938,0,0,0,.005.1c1.517.377,2.575,1.088,2.831,1.9l.233.056A13.848,13.848,0,0,1,7.023,3.112a29.565,29.565,0,0,1,5.51-.535.942.942,0,0,0,.018-.185C12.551,1.073,9.736,0,6.275,0Z" transform="translate(13.79 26.765) rotate(-129)" fill="#ca00ee"/>
        <path id="Subtraction_4-2" data-name="Subtraction 4" d="M6.9,0C3.1,0,0,1.376,0,3.067c0,.042,0,.084.006.126,1.669.483,2.832,1.4,3.114,2.44.087.025.173.049.257.071A13.837,13.837,0,0,1,7.725,3.99,28.065,28.065,0,0,1,13.786,3.3a1.4,1.4,0,0,0,.02-.237C13.806,1.376,10.709,0,6.9,0Z" transform="translate(14.637 31.845) rotate(-140)" fill="#ca00ee"/>
        <path id="Subtraction_5-2" data-name="Subtraction 5" d="M10.284,0C4.613,0,0,1.315,0,2.931a.858.858,0,0,0,.009.12c2.486.462,4.22,1.333,4.639,2.331.13.024.258.047.382.068a28.2,28.2,0,0,1,6.479-1.637,64.33,64.33,0,0,1,9.03-.656.875.875,0,0,0,.03-.226C20.569,1.315,15.955,0,10.284,0Z" transform="matrix(-0.921, -0.391, 0.391, -0.921, 18.934, 36.754)" fill="#ca00ee"/>
        <path id="Subtraction_8-2" data-name="Subtraction 8" d="M5.1,0C2.289,0,0,.448,0,1a.2.2,0,0,0,0,.041c1.233.157,2.093.454,2.3.794l.19.023A19.342,19.342,0,0,1,5.709,1.3c1.353-.14,2.9-.217,4.479-.223A.211.211,0,0,0,10.2,1C10.2.448,7.915,0,5.1,0Z" transform="matrix(0.035, -0.999, 0.999, 0.035, 14.079, 17.505)" fill="#ca00ee"/>
        <path id="Subtraction_9-2" data-name="Subtraction 9" d="M3.824,0C1.715,0,0,.514,0,1.147a.355.355,0,0,0,0,.047c.924.181,1.569.522,1.725.912l.142.027a10.065,10.065,0,0,1,2.409-.641,22.752,22.752,0,0,1,3.357-.257.359.359,0,0,0,.011-.089C7.647.514,5.932,0,3.824,0Z" transform="translate(14.251 19.351) rotate(-107)" fill="#ca00ee"/>
        <path id="Subtraction_10-2" data-name="Subtraction 10" d="M6.466,0C2.9,0,0,.411,0,.916A.137.137,0,0,0,.005.954a5.83,5.83,0,0,1,2.917.729l.24.021a33.085,33.085,0,0,1,4.074-.512c1.714-.129,3.678-.2,5.677-.205a.149.149,0,0,0,.019-.071C12.933.411,10.032,0,6.466,0Z" transform="matrix(0.259, -0.966, 0.966, 0.259, 14.419, 16.079)" fill="#ca00ee"/>
        <path id="Subtraction_11-2" data-name="Subtraction 11" d="M7.747,0C3.475,0,0,.378,0,.843A.1.1,0,0,0,.006.878,8.64,8.64,0,0,1,3.5,1.548l.288.02c1.2-.193,2.885-.356,4.881-.471,2.054-.118,4.406-.184,6.8-.189a.113.113,0,0,0,.023-.065C15.495.378,12.019,0,7.747,0Z" transform="matrix(0.438, -0.899, 0.899, 0.438, 15.312, 13.927)" fill="#ca00ee"/>
        <path id="Subtraction_12-2" data-name="Subtraction 12" d="M12.612,0C5.658,0,0,1.4,0,3.12a.8.8,0,0,0,.01.128C3.059,3.74,5.185,4.667,5.7,5.73c.159.026.317.05.469.073a38.89,38.89,0,0,1,7.946-1.743,90.674,90.674,0,0,1,11.074-.7.817.817,0,0,0,.037-.241C25.225,1.4,19.567,0,12.612,0Z" transform="translate(24.771 40.736) rotate(-169)" fill="#ca00ee"/>
      </g>
    </g>
  </g>
</svg>
